<?xml version="1.0" encoding="UTF-8"?>
<!-- Do not edit this file with editors other than diagrams.net -->
<!DOCTYPE svg PUBLIC "-//W3C//DTD SVG 1.1//EN" "http://www.w3.org/Graphics/SVG/1.1/DTD/svg11.dtd">
<svg xmlns="http://www.w3.org/2000/svg" xmlns:xlink="http://www.w3.org/1999/xlink" version="1.1" width="651px" height="271px" viewBox="-0.5 -0.5 651 271" content="&lt;mxfile host=&quot;app.diagrams.net&quot; modified=&quot;2022-07-20T13:35:52.391Z&quot; agent=&quot;5.0 (Windows NT 10.0; Win64; x64) AppleWebKit/537.36 (KHTML, like Gecko) Chrome/103.0.0.0 Safari/537.36&quot; etag=&quot;NSowIdZhT5LMgwNumMzR&quot; version=&quot;20.1.3&quot; type=&quot;github&quot;&gt;&lt;diagram id=&quot;R2lEEEUBdFMjLlhIrx00&quot; name=&quot;Page-1&quot;&gt;7V1db6M4FP01ljoPrQgfCXkMSTodbbuqZkY7s08rFxxiDcERuG3SX7822CGpQ0pKvo1EJXwxBvsc++Br3wZY/cnsawKn4wcSoAiYRjAD1gCYZss2TcAPI5jnlk7Xzg1hggORqTD8wG9IGA1hfcYBSlcyUkIiiqerRp/EMfLpig0mCXldzTYi0epTpzBEiuGHDyPV+gsHdJxbXcco7HcIh2P55JYhrkygzCwM6RgG5HXFhGb0lsRUvOIjSiYwRjFlVx5g8gclwBmOKeU17QHzlh0jnvsmJCSMEJzi9MYnE2b2U5bldgQnOOLNvFSQJwpij7OGwOonhND8bDLro4hjJWHI3+m25OqiHRJeboUb+tcv8/s/Bo3vXq1/6MND+Nh5ujatvJgXGD2LBu4lFPustfsm6BlXYNgDngncPhj2geuBbj+zuMA1vohmpHOJDWvRKT+l8ImbvJTChAoKWQYzMFJQiGNWf2vQytJRBKcpzrLnljGOgns4J89UFiRT3gjPUPA9ZxDPy8h0zwrjSV44x+KHeBl+GUY4jNm5zxqIP9FLUMre5R6mVORQm1C06gtKKJotmUSTfkVkgmgyZ1nE1Y5gjuhNLUukXwtumm1hGy/xcnEjFGQLF0UXGLITAeM2kNoKpKVAsapTDKPvrKPCOMwwW4WEt2uQkOlPmISICsOUYN6iwxeUd5Ws8XEU9UlEOLIxiZHMltXO8djB6ts3bhzgsBfos3SrSLODZ09on8QpTRhD+KMQA+oVcbA8SqbiOREayddIRGvy8ydCKet5OayrRFAw3twRPkZeQF0VaWtvQDsK0I9/bQM1YZUdRdkQOMZBgOK8h/JhGxbwr0F2LRwLCN5j875fVkXErozIEgTWlgiIwopm2bo0GLG+EEOKPPIcB6kC6+I9ayDdVpBm+U3jmv094ZB3l9ODXQ6/eV4vnUIfx+F9fmf7HS+cvfBiVt5Td8uTkyFKR+exXx1s9jX2t48+9ru1gD7KyF8RjE5lMC5+2O8qIFNMs5e94p/jPSP7HPdArwd63S9CEF5g4o9hcmU6TvkX+pnIwh5Ic8ma4HW+vaXt1jeIvdEv/9a9c+7/vjYbSVAIpfCkskqUSkL3gJKwFmd1Jn+CvX97LMo5fdGCsLba6syeO1RyB9UVFwLXBJ7NpaG7ThHajmNdjCbskDbaSYLqOGgkYQ+S0DKPrQmq3+AEe/+OOrejpyaoM/4xTMcUhrkmDEDXEZogvPcD4FrSjd8BnnvB84Yd0kg7jajnYGg0oqpGOMfWCNXJcIK9f0ed29VTI+Ta/fLEIUHskUGPSmcSF4VBdmID1qv4HGIAvGLZV8pEwG6jeIJOkCSHkogSFmknEXbjWjqMRrjH1ghbJ+eSrat3aY17KVcJb75BJYaga7yfQ7SMDbuDLl8gyhiknUK0WgqlGoXYg0IsdmceTSFa9b4FzkshWpe/IL2+3upnwIQEmOKViYQLuq5cnnaaicQneKSfTmi9Z/WAOmEfXSfqrT2dmU7YmuqEuu4kdWJpKqHqRDOVqEwh/SRCXegSkSp9Mpks74FgRLIuLkjlA+5s/pCw5RC/dZSKvTcd0Hp9qSRK5VMDRGej4h8ySmX9+6nrS2cUpfIpRDRdZZK7XXSIUtklL7STcrPxCh5k7D9klMp6oFWn4O3pj/2fhkODOJX19VbdgjD/NP8vE4BNQeRZ2XLOdxkqsQcG6ScRjUPwIBJx9KiVNUHsJ9j/d9W9NfUHrolf3ypwxTT0dgKW8UY7WZCPbGRhv7Jw/MgVq94c8bx0IW9F/XTBUueHNfYlJ7pvJyijkX4yUS+moZGJqjJx9OAVu94HwZnJRFdPmbDVb4FmY/JOGaSfQtQLaGgUoqpCHD10xarnSTwzhSjZ/nfpCmGpXsRmY/IeeKSfTtT7DxqNTlTUieMHsFj1/nXmmelEW1OdUHcdNhuTd0sh7STCrrCCiYIQyTZH0RN5HRYGLzNwVpAEv/G9xxE3xkGP/1oCs/sRTFPsM+OYTiIgtxWz+qBAgI5mmP4WV/j5v9x+44jUYLaUbTCXiZjV+/dyYukunixuy1LyvrxyvEalhBGmlDwnPtrQdKLlqNTDUq597B931pBB2hIUQYpfVt93A+EeSbYLZbF7Wv6ChNxS+55keT3FXQXB1IKc1YJM911BeUMoBX3MVJYsfkgiz178+oc1/B8=&lt;/diagram&gt;&lt;/mxfile&gt;" resource="https://app.diagrams.net/#Hmecaman91%2Fproject-board%2Fmain%2Fdocument%2Fproject-board-erd.svg"><defs><clipPath id="mx-clip-0-30-30-30-0"><rect x="0" y="30" width="30" height="30"/></clipPath><clipPath id="mx-clip-36-30-224-30-0"><rect x="36" y="30" width="224" height="30"/></clipPath><clipPath id="mx-clip-36-60-224-30-0"><rect x="36" y="60" width="224" height="30"/></clipPath><clipPath id="mx-clip-36-90-224-30-0"><rect x="36" y="90" width="224" height="30"/></clipPath><clipPath id="mx-clip-36-120-224-30-0"><rect x="36" y="120" width="224" height="30"/></clipPath><clipPath id="mx-clip-36-150-224-30-0"><rect x="36" y="150" width="224" height="30"/></clipPath><clipPath id="mx-clip-36-180-224-30-0"><rect x="36" y="180" width="224" height="30"/></clipPath><clipPath id="mx-clip-36-210-224-30-0"><rect x="36" y="210" width="224" height="30"/></clipPath><clipPath id="mx-clip-36-240-224-30-0"><rect x="36" y="240" width="224" height="30"/></clipPath><clipPath id="mx-clip-390-30-30-30-0"><rect x="390" y="30" width="30" height="30"/></clipPath><clipPath id="mx-clip-426-30-224-30-0"><rect x="426" y="30" width="224" height="30"/></clipPath><clipPath id="mx-clip-390-60-30-30-0"><rect x="390" y="60" width="30" height="30"/></clipPath><clipPath id="mx-clip-426-60-224-30-0"><rect x="426" y="60" width="224" height="30"/></clipPath><clipPath id="mx-clip-426-90-224-30-0"><rect x="426" y="90" width="224" height="30"/></clipPath><clipPath id="mx-clip-426-120-224-30-0"><rect x="426" y="120" width="224" height="30"/></clipPath><clipPath id="mx-clip-426-150-224-30-0"><rect x="426" y="150" width="224" height="30"/></clipPath><clipPath id="mx-clip-426-180-224-30-0"><rect x="426" y="180" width="224" height="30"/></clipPath><clipPath id="mx-clip-426-210-224-30-0"><rect x="426" y="210" width="224" height="30"/></clipPath></defs><g><path d="M 0 30 L 0 0 L 260 0 L 260 30" fill="rgb(255, 255, 255)" stroke="rgb(0, 0, 0)" stroke-miterlimit="10" pointer-events="all"/><path d="M 0 30 L 0 270 L 260 270 L 260 30" fill="none" stroke="rgb(0, 0, 0)" stroke-miterlimit="10" pointer-events="none"/><path d="M 0 30 L 260 30" fill="none" stroke="rgb(0, 0, 0)" stroke-miterlimit="10" pointer-events="none"/><path d="M 30 30 L 30 60 L 30 90 L 30 120 L 30 150 L 30 180 L 30 210 L 30 240 L 30 270" fill="none" stroke="rgb(0, 0, 0)" stroke-miterlimit="10" pointer-events="none"/><g fill="rgb(0, 0, 0)" font-family="Helvetica" font-weight="bold" pointer-events="none" text-anchor="middle" font-size="12px"><text x="129.5" y="19.5">Article (게시글)</text></g><path d="M 0 30 M 260 30 M 260 60 L 0 60" fill="none" stroke="rgb(0, 0, 0)" stroke-linecap="square" stroke-miterlimit="10" pointer-events="none"/><path d="M 0 30 M 30 30 M 30 60 M 0 60" fill="none" stroke="rgb(0, 0, 0)" stroke-linecap="square" stroke-miterlimit="10" pointer-events="none"/><g fill="rgb(0, 0, 0)" font-family="Helvetica" font-weight="bold" pointer-events="none" clip-path="url(#mx-clip-0-30-30-30-0)" text-anchor="middle" font-size="12px"><text x="14.5" y="49.5">PK</text></g><path d="M 30 30 M 260 30 M 260 60 M 30 60" fill="none" stroke="rgb(0, 0, 0)" stroke-linecap="square" stroke-miterlimit="10" pointer-events="none"/><g fill="rgb(0, 0, 0)" font-family="Helvetica" font-weight="bold" text-decoration="underline" pointer-events="none" clip-path="url(#mx-clip-36-30-224-30-0)" font-size="12px"><text x="37.5" y="49.5">id - bigint</text></g><path d="M 0 60 M 260 60 M 260 90 M 0 90" fill="none" stroke="rgb(0, 0, 0)" stroke-linecap="square" stroke-miterlimit="10" pointer-events="none"/><path d="M 0 60 M 30 60 M 30 90 M 0 90" fill="none" stroke="rgb(0, 0, 0)" stroke-linecap="square" stroke-miterlimit="10" pointer-events="none"/><path d="M 30 60 M 260 60 M 260 90 M 30 90" fill="none" stroke="rgb(0, 0, 0)" stroke-linecap="square" stroke-miterlimit="10" pointer-events="none"/><g fill="rgb(0, 0, 0)" font-family="Helvetica" font-weight="bold" pointer-events="none" clip-path="url(#mx-clip-36-60-224-30-0)" font-size="12px"><text x="37.5" y="79.5">title (제목) - varchar(255)</text></g><path d="M 0 90 M 260 90 M 260 120 M 0 120" fill="none" stroke="rgb(0, 0, 0)" stroke-linecap="square" stroke-miterlimit="10" pointer-events="none"/><path d="M 0 90 M 30 90 M 30 120 M 0 120" fill="none" stroke="rgb(0, 0, 0)" stroke-linecap="square" stroke-miterlimit="10" pointer-events="none"/><path d="M 30 90 M 260 90 M 260 120 M 30 120" fill="none" stroke="rgb(0, 0, 0)" stroke-linecap="square" stroke-miterlimit="10" pointer-events="none"/><g fill="rgb(0, 0, 0)" font-family="Helvetica" font-weight="bold" pointer-events="none" clip-path="url(#mx-clip-36-90-224-30-0)" font-size="12px"><text x="37.5" y="109.5">content (내용) - varchar(65535)</text></g><path d="M 0 120 M 260 120 M 260 150 M 0 150" fill="none" stroke="rgb(0, 0, 0)" stroke-linecap="square" stroke-miterlimit="10" pointer-events="none"/><path d="M 0 120 M 30 120 M 30 150 M 0 150" fill="none" stroke="rgb(0, 0, 0)" stroke-linecap="square" stroke-miterlimit="10" pointer-events="none"/><path d="M 30 120 M 260 120 M 260 150 M 30 150" fill="none" stroke="rgb(0, 0, 0)" stroke-linecap="square" stroke-miterlimit="10" pointer-events="none"/><g fill="rgb(0, 0, 0)" font-family="Helvetica" font-weight="bold" pointer-events="none" clip-path="url(#mx-clip-36-120-224-30-0)" font-size="12px"><text x="37.5" y="139.5">hashtag (해시태그) - varchar(255)</text></g><path d="M 0 150 M 260 150 M 260 180 M 0 180" fill="none" stroke="rgb(0, 0, 0)" stroke-linecap="square" stroke-miterlimit="10" pointer-events="none"/><path d="M 0 150 M 30 150 M 30 180 M 0 180" fill="none" stroke="rgb(0, 0, 0)" stroke-linecap="square" stroke-miterlimit="10" pointer-events="none"/><path d="M 30 150 M 260 150 M 260 180 M 30 180" fill="none" stroke="rgb(0, 0, 0)" stroke-linecap="square" stroke-miterlimit="10" pointer-events="none"/><g fill="rgb(0, 0, 0)" font-family="Helvetica" font-weight="bold" pointer-events="none" clip-path="url(#mx-clip-36-150-224-30-0)" font-size="12px"><text x="37.5" y="169.5">createdAt (생성일시) - datetime</text></g><path d="M 0 180 M 260 180 M 260 210 M 0 210" fill="none" stroke="rgb(0, 0, 0)" stroke-linecap="square" stroke-miterlimit="10" pointer-events="none"/><path d="M 0 180 M 30 180 M 30 210 M 0 210" fill="none" stroke="rgb(0, 0, 0)" stroke-linecap="square" stroke-miterlimit="10" pointer-events="none"/><path d="M 30 180 M 260 180 M 260 210 M 30 210" fill="none" stroke="rgb(0, 0, 0)" stroke-linecap="square" stroke-miterlimit="10" pointer-events="none"/><g fill="rgb(0, 0, 0)" font-family="Helvetica" font-weight="bold" pointer-events="none" clip-path="url(#mx-clip-36-180-224-30-0)" font-size="12px"><text x="37.5" y="199.5">createdBy (생성자) - varchar(100)</text></g><path d="M 0 210 M 260 210 M 260 240 M 0 240" fill="none" stroke="rgb(0, 0, 0)" stroke-linecap="square" stroke-miterlimit="10" pointer-events="none"/><path d="M 0 210 M 30 210 M 30 240 M 0 240" fill="none" stroke="rgb(0, 0, 0)" stroke-linecap="square" stroke-miterlimit="10" pointer-events="none"/><path d="M 30 210 M 260 210 M 260 240 M 30 240" fill="none" stroke="rgb(0, 0, 0)" stroke-linecap="square" stroke-miterlimit="10" pointer-events="none"/><g fill="rgb(0, 0, 0)" font-family="Helvetica" font-weight="bold" pointer-events="none" clip-path="url(#mx-clip-36-210-224-30-0)" font-size="12px"><text x="37.5" y="229.5">moditiedAt (수정일시) - datetime</text></g><path d="M 0 240 M 260 240 M 260 270 M 0 270" fill="none" stroke="rgb(0, 0, 0)" stroke-linecap="square" stroke-miterlimit="10" pointer-events="none"/><path d="M 0 240 M 30 240 M 30 270 M 0 270" fill="none" stroke="rgb(0, 0, 0)" stroke-linecap="square" stroke-miterlimit="10" pointer-events="none"/><path d="M 30 240 M 260 240 M 260 270 M 30 270" fill="none" stroke="rgb(0, 0, 0)" stroke-linecap="square" stroke-miterlimit="10" pointer-events="none"/><g fill="rgb(0, 0, 0)" font-family="Helvetica" font-weight="bold" pointer-events="none" clip-path="url(#mx-clip-36-240-224-30-0)" font-size="12px"><text x="37.5" y="259.5">moditiedBy (수정자) - varchar(100)</text></g><path d="M 390 30 L 390 0 L 650 0 L 650 30" fill="rgb(255, 255, 255)" stroke="rgb(0, 0, 0)" stroke-miterlimit="10" pointer-events="none"/><path d="M 390 30 L 390 240 L 650 240 L 650 30" fill="none" stroke="rgb(0, 0, 0)" stroke-miterlimit="10" pointer-events="none"/><path d="M 390 30 L 650 30" fill="none" stroke="rgb(0, 0, 0)" stroke-miterlimit="10" pointer-events="none"/><path d="M 420 30 L 420 60 L 420 90 L 420 120 L 420 150 L 420 180 L 420 210 L 420 240" fill="none" stroke="rgb(0, 0, 0)" stroke-miterlimit="10" pointer-events="none"/><g fill="rgb(0, 0, 0)" font-family="Helvetica" font-weight="bold" pointer-events="none" text-anchor="middle" font-size="12px"><text x="519.5" y="19.5">ArticleComment (댓글)</text></g><path d="M 390 30 M 650 30 M 650 60 L 390 60" fill="none" stroke="rgb(0, 0, 0)" stroke-linecap="square" stroke-miterlimit="10" pointer-events="none"/><path d="M 390 30 M 420 30 M 420 60 M 390 60" fill="none" stroke="rgb(0, 0, 0)" stroke-linecap="square" stroke-miterlimit="10" pointer-events="none"/><g fill="rgb(0, 0, 0)" font-family="Helvetica" font-weight="bold" pointer-events="none" clip-path="url(#mx-clip-390-30-30-30-0)" text-anchor="middle" font-size="12px"><text x="404.5" y="49.5">PK</text></g><path d="M 420 30 M 650 30 M 650 60 M 420 60" fill="none" stroke="rgb(0, 0, 0)" stroke-linecap="square" stroke-miterlimit="10" pointer-events="none"/><g fill="rgb(0, 0, 0)" font-family="Helvetica" font-weight="bold" text-decoration="underline" pointer-events="none" clip-path="url(#mx-clip-426-30-224-30-0)" font-size="12px"><text x="427.5" y="49.5">id - bigint</text></g><path d="M 390 60 M 650 60 M 650 90 M 390 90" fill="none" stroke="rgb(0, 0, 0)" stroke-linecap="square" stroke-miterlimit="10" pointer-events="none"/><path d="M 390 60 M 420 60 M 420 90 M 390 90" fill="none" stroke="rgb(0, 0, 0)" stroke-linecap="square" stroke-miterlimit="10" pointer-events="none"/><g fill="rgb(0, 0, 0)" font-family="Helvetica" font-weight="bold" pointer-events="none" clip-path="url(#mx-clip-390-60-30-30-0)" text-anchor="middle" font-size="12px"><text x="404.5" y="79.5">FK</text></g><path d="M 420 60 M 650 60 M 650 90 M 420 90" fill="none" stroke="rgb(0, 0, 0)" stroke-linecap="square" stroke-miterlimit="10" pointer-events="none"/><g fill="rgb(0, 0, 0)" font-family="Helvetica" font-weight="bold" pointer-events="none" clip-path="url(#mx-clip-426-60-224-30-0)" font-size="12px"><text x="427.5" y="79.5">article_id (게시글 id) - bigint</text></g><path d="M 390 90 M 650 90 M 650 120 M 390 120" fill="none" stroke="rgb(0, 0, 0)" stroke-linecap="square" stroke-miterlimit="10" pointer-events="none"/><path d="M 390 90 M 420 90 M 420 120 M 390 120" fill="none" stroke="rgb(0, 0, 0)" stroke-linecap="square" stroke-miterlimit="10" pointer-events="none"/><path d="M 420 90 M 650 90 M 650 120 M 420 120" fill="none" stroke="rgb(0, 0, 0)" stroke-linecap="square" stroke-miterlimit="10" pointer-events="none"/><g fill="rgb(0, 0, 0)" font-family="Helvetica" font-weight="bold" pointer-events="none" clip-path="url(#mx-clip-426-90-224-30-0)" font-size="12px"><text x="427.5" y="109.5">content (내용) - varchar(2000)</text></g><path d="M 390 120 M 650 120 M 650 150 M 390 150" fill="none" stroke="rgb(0, 0, 0)" stroke-linecap="square" stroke-miterlimit="10" pointer-events="none"/><path d="M 390 120 M 420 120 M 420 150 M 390 150" fill="none" stroke="rgb(0, 0, 0)" stroke-linecap="square" stroke-miterlimit="10" pointer-events="none"/><path d="M 420 120 M 650 120 M 650 150 M 420 150" fill="none" stroke="rgb(0, 0, 0)" stroke-linecap="square" stroke-miterlimit="10" pointer-events="none"/><g fill="rgb(0, 0, 0)" font-family="Helvetica" font-weight="bold" pointer-events="none" clip-path="url(#mx-clip-426-120-224-30-0)" font-size="12px"><text x="427.5" y="139.5">createdAt (생성일시) - daretime</text></g><path d="M 390 150 M 650 150 M 650 180 M 390 180" fill="none" stroke="rgb(0, 0, 0)" stroke-linecap="square" stroke-miterlimit="10" pointer-events="none"/><path d="M 390 150 M 420 150 M 420 180 M 390 180" fill="none" stroke="rgb(0, 0, 0)" stroke-linecap="square" stroke-miterlimit="10" pointer-events="none"/><path d="M 420 150 M 650 150 M 650 180 M 420 180" fill="none" stroke="rgb(0, 0, 0)" stroke-linecap="square" stroke-miterlimit="10" pointer-events="none"/><g fill="rgb(0, 0, 0)" font-family="Helvetica" font-weight="bold" pointer-events="none" clip-path="url(#mx-clip-426-150-224-30-0)" font-size="12px"><text x="427.5" y="169.5">createdBy (생성자) - varchar(100)</text></g><path d="M 390 180 M 650 180 M 650 210 M 390 210" fill="none" stroke="rgb(0, 0, 0)" stroke-linecap="square" stroke-miterlimit="10" pointer-events="none"/><path d="M 390 180 M 420 180 M 420 210 M 390 210" fill="none" stroke="rgb(0, 0, 0)" stroke-linecap="square" stroke-miterlimit="10" pointer-events="none"/><path d="M 420 180 M 650 180 M 650 210 M 420 210" fill="none" stroke="rgb(0, 0, 0)" stroke-linecap="square" stroke-miterlimit="10" pointer-events="none"/><g fill="rgb(0, 0, 0)" font-family="Helvetica" font-weight="bold" pointer-events="none" clip-path="url(#mx-clip-426-180-224-30-0)" font-size="12px"><text x="427.5" y="199.5">moditiedAt (수정일시) - datetime</text></g><path d="M 390 210 M 650 210 M 650 240 M 390 240" fill="none" stroke="rgb(0, 0, 0)" stroke-linecap="square" stroke-miterlimit="10" pointer-events="none"/><path d="M 390 210 M 420 210 M 420 240 M 390 240" fill="none" stroke="rgb(0, 0, 0)" stroke-linecap="square" stroke-miterlimit="10" pointer-events="none"/><path d="M 420 210 M 650 210 M 650 240 M 420 240" fill="none" stroke="rgb(0, 0, 0)" stroke-linecap="square" stroke-miterlimit="10" pointer-events="none"/><g fill="rgb(0, 0, 0)" font-family="Helvetica" font-weight="bold" pointer-events="none" clip-path="url(#mx-clip-426-210-224-30-0)" font-size="12px"><text x="427.5" y="229.5">moditiedBy (수정자) - varchar(100)</text></g><path d="M 260 135 L 325 135 L 383.63 135" fill="none" stroke="rgb(0, 0, 0)" stroke-miterlimit="10" pointer-events="none"/><path d="M 388.88 135 L 381.88 138.5 L 383.63 135 L 381.88 131.5 Z" fill="rgb(0, 0, 0)" stroke="rgb(0, 0, 0)" stroke-miterlimit="10" pointer-events="none"/></g></svg>